<svg width="6" height="9" viewBox="0 0 6 9" fill="none" xmlns="http://www.w3.org/2000/svg">
<path d="M2.82913 8.05C2.7758 8.05 2.7278 8.03133 2.68513 7.994C2.6478 7.95667 2.62913 7.90867 2.62913 7.85V7.298C2.23447 7.25 1.8958 7.14867 1.61313 6.994C1.3358 6.83933 1.12513 6.65267 0.981133 6.434C0.842466 6.21 0.7678 5.97267 0.757133 5.722C0.757133 5.67933 0.773133 5.642 0.805133 5.61C0.842466 5.57267 0.885133 5.554 0.933133 5.554H1.94113C2.00513 5.554 2.0558 5.56733 2.09313 5.594C2.1358 5.61533 2.17847 5.65 2.22113 5.698C2.29047 5.83667 2.3998 5.95133 2.54913 6.042C2.7038 6.13267 2.9118 6.178 3.17313 6.178C3.47713 6.178 3.70913 6.13 3.86913 6.034C4.02913 5.938 4.10913 5.80733 4.10913 5.642C4.10913 5.52467 4.06647 5.42867 3.98113 5.354C3.90113 5.27933 3.77313 5.21267 3.59713 5.154C3.42113 5.09533 3.1598 5.02867 2.81313 4.954C2.1678 4.826 1.6878 4.63133 1.37313 4.37C1.05847 4.10867 0.901133 3.738 0.901133 3.258C0.901133 2.83133 1.0558 2.46867 1.36513 2.17C1.67447 1.866 2.0958 1.67933 2.62913 1.61V1.05C2.62913 0.991333 2.6478 0.943333 2.68513 0.906C2.7278 0.868666 2.7758 0.85 2.82913 0.85H3.49313C3.5518 0.85 3.5998 0.868666 3.63713 0.906C3.67447 0.943333 3.69313 0.991333 3.69313 1.05V1.626C4.04513 1.68467 4.34647 1.79667 4.59713 1.962C4.85313 2.122 5.0478 2.306 5.18113 2.514C5.31447 2.722 5.38647 2.92733 5.39713 3.13C5.39713 3.17267 5.38113 3.21267 5.34913 3.25C5.31713 3.282 5.27713 3.298 5.22913 3.298H4.17313C4.10913 3.298 4.0558 3.28733 4.01313 3.266C3.9758 3.24467 3.94113 3.21 3.90913 3.162C3.87713 3.03933 3.78913 2.93533 3.64513 2.85C3.50647 2.76467 3.33313 2.722 3.12513 2.722C2.88513 2.722 2.70113 2.76467 2.57313 2.85C2.44513 2.93533 2.38113 3.06067 2.38113 3.226C2.38113 3.338 2.4158 3.43133 2.48513 3.506C2.5598 3.58067 2.67713 3.65 2.83713 3.714C3.00247 3.77267 3.23713 3.834 3.54113 3.898C4.03713 3.98867 4.4318 4.10333 4.72513 4.242C5.01847 4.37533 5.23447 4.54867 5.37313 4.762C5.5118 4.97533 5.58113 5.24733 5.58113 5.578C5.58113 6.04733 5.41047 6.43133 5.06913 6.73C4.7278 7.02867 4.26913 7.21533 3.69313 7.29V7.85C3.69313 7.90867 3.67447 7.95667 3.63713 7.994C3.5998 8.03133 3.5518 8.05 3.49313 8.05H2.82913Z" fill="#FF7A50"/>
</svg>
