<svg width="20" height="16" viewBox="0 0 20 16" fill="none" xmlns="http://www.w3.org/2000/svg">
<path d="M11.3747 0.722328L13.4873 4.40761C13.6429 4.67461 13.94 4.86002 14.2826 4.90123L19.0279 5.50116C19.305 5.53494 19.5565 5.66185 19.7264 5.85551C19.8943 6.0467 19.9665 6.28898 19.9257 6.52713C19.8924 6.72491 19.7852 6.90786 19.621 7.04795L16.1826 9.94129C15.9311 10.1432 15.8172 10.4423 15.8779 10.7349L16.7245 14.8025C16.8146 15.2937 16.4398 15.7568 15.8779 15.8499C15.6464 15.8821 15.4091 15.8483 15.2003 15.756L10.9675 13.8417C10.6534 13.704 10.2823 13.704 9.96815 13.8417L5.73535 15.756C5.21527 15.9958 4.57086 15.8326 4.2814 15.3876C4.17415 15.2104 4.13619 15.0085 4.17131 14.8116L5.01787 10.7431C5.07861 10.4514 4.96377 10.1506 4.71322 9.94871L1.27478 7.05702C0.865739 6.7142 0.853401 6.14971 1.24726 5.79453C1.2558 5.78711 1.26529 5.77887 1.27478 5.77063C1.43802 5.62642 1.65251 5.53494 1.88408 5.51105L6.62936 4.91029C6.97103 4.86826 7.26808 4.6845 7.42468 4.41585L9.46135 0.722328C9.64262 0.405882 10.0184 0.208927 10.4265 0.217168H10.5537C10.9077 0.254251 11.2162 0.444613 11.3747 0.722328Z" fill="#FAC412"/>
<path d="M10.4407 13.739C10.2569 13.744 10.0779 13.7868 9.9168 13.8635L5.7047 15.7735C5.18932 15.987 4.57257 15.8213 4.28361 15.3935C4.17656 15.2187 4.13772 15.0184 4.17372 14.8222L5.015 10.7624C5.07184 10.4672 4.95816 10.1672 4.71089 9.95945L1.27091 7.06851C0.862586 6.72146 0.855007 6.15185 1.25481 5.79656C1.26049 5.79161 1.26523 5.78749 1.27091 5.78337C1.43386 5.64323 1.64418 5.55091 1.87061 5.52206L6.61988 4.91535C6.96378 4.87743 7.26221 4.69113 7.41379 4.42074L9.47816 0.680736C9.67427 0.37903 10.0504 0.199325 10.4483 0.218284C10.4407 0.463112 10.4407 13.5725 10.4407 13.739Z" fill="#FAC412"/>
</svg>
