<svg width="20" height="22" viewBox="0 0 20 22" fill="none" xmlns="http://www.w3.org/2000/svg">
<path d="M10.5748 2.5401V1.58126C10.5748 1.41919 10.5104 1.26375 10.3958 1.14914C10.2812 1.03454 10.1257 0.970154 9.96367 0.970154C9.80159 0.970154 9.64615 1.03454 9.53155 1.14914C9.41694 1.26375 9.35256 1.41919 9.35256 1.58126V2.5456C4.55045 2.87926 0.744446 6.88968 0.744446 11.7752C0.744446 16.8777 4.89664 21.0299 10 21.0299C15.1034 21.0299 19.2556 16.8777 19.2556 11.7752C19.2556 6.86524 15.4114 2.83801 10.5748 2.5401V2.5401ZM10 19.8077C5.57039 19.8077 1.96667 16.2039 1.96667 11.7752C1.96667 7.34588 5.57039 3.74246 10 3.74246C14.4297 3.74246 18.0334 7.34588 18.0334 11.7752C18.0334 16.2039 14.4297 19.8077 10 19.8077Z" fill="#363853"/>
</svg>
