<svg width="11" height="9" viewBox="0 0 11 9" fill="none" xmlns="http://www.w3.org/2000/svg">
<path d="M6.24353 0.426992L7.31481 2.4777C7.39373 2.62628 7.54437 2.72945 7.7181 2.75238L10.1244 3.08622C10.2649 3.10502 10.3925 3.17564 10.4786 3.2834C10.5638 3.38979 10.6004 3.52461 10.5797 3.65713C10.5628 3.76719 10.5084 3.86899 10.4252 3.94695L8.68158 5.55697C8.55405 5.66932 8.4963 5.83578 8.5271 5.99857L8.95638 8.26206C9.0021 8.53536 8.812 8.79308 8.5271 8.8449C8.40967 8.86278 8.28936 8.84398 8.18348 8.79262L6.03707 7.72737C5.87777 7.65079 5.6896 7.65079 5.5303 7.72737L3.38389 8.79262C3.12016 8.92606 2.79338 8.83527 2.6466 8.58764C2.59222 8.48905 2.57297 8.3767 2.59077 8.2671L3.02006 6.00316C3.05086 5.84083 2.99262 5.67345 2.86557 5.5611L1.12197 3.95199C0.914548 3.76123 0.908292 3.44711 1.10801 3.24947C1.11235 3.24534 1.11716 3.24076 1.12197 3.23617C1.20475 3.15592 1.31351 3.10502 1.43094 3.09172L3.83723 2.75743C4.01049 2.73404 4.16112 2.63178 4.24053 2.48229L5.27331 0.426992C5.36523 0.250902 5.55581 0.141305 5.76275 0.14589H5.82724C6.00675 0.166526 6.16316 0.272455 6.24353 0.426992Z" fill="#FAC412"/>
<path d="M5.76993 7.67026C5.67673 7.67301 5.58593 7.69687 5.50426 7.73953L3.36834 8.80236C3.107 8.92116 2.79425 8.82896 2.64772 8.59089C2.59344 8.49365 2.57374 8.38218 2.59199 8.27301L3.0186 6.01386C3.04743 5.84964 2.98978 5.68267 2.86439 5.56708L1.12001 3.95839C0.91295 3.76527 0.909106 3.4483 1.11184 3.2506C1.11472 3.24785 1.11713 3.24555 1.12001 3.24326C1.20264 3.16528 1.30929 3.1139 1.42411 3.09785L3.83242 2.76024C4.00681 2.73914 4.15814 2.63547 4.23501 2.48501L5.28183 0.403848C5.38128 0.23596 5.572 0.135961 5.77377 0.146512C5.76993 0.282748 5.76993 7.5776 5.76993 7.67026Z" fill="#FAC412"/>
</svg>
